<svg xmlns="http://www.w3.org/2000/svg" xmlns:xlink="http://www.w3.org/1999/xlink" id="processonSvg1000" viewBox="62.0 31.0 492.0 433.0" width="492.0" height="433.0"><defs id="ProcessOnDefs1001"><marker id="ProcessOnMarker1033" markerUnits="userSpaceOnUse" orient="auto" markerWidth="16.23606797749979" markerHeight="10.550836550532098" viewBox="-1.0 -1.3763819204711736 16.23606797749979 10.550836550532098" refX="-1.0" refY="3.8990363547948754"><path id="ProcessOnPath1034" d="M12.0 3.8990363547948754L0.0 7.798072709589751V0.0Z" stroke="#323232" stroke-width="2.0" fill="#323232" transform="matrix(1.0,0.0,0.0,1.0,0.0,0.0)"/></marker><marker id="ProcessOnMarker1061" markerUnits="userSpaceOnUse" orient="auto" markerWidth="16.23606797749979" markerHeight="10.550836550532098" viewBox="-1.0 -1.3763819204711736 16.23606797749979 10.550836550532098" refX="-1.0" refY="3.8990363547948754"><path id="ProcessOnPath1062" d="M12.0 3.8990363547948754L0.0 7.798072709589751V0.0Z" stroke="#323232" stroke-width="2.0" fill="#323232" transform="matrix(1.0,0.0,0.0,1.0,0.0,0.0)"/></marker><marker id="ProcessOnMarker1065" markerUnits="userSpaceOnUse" orient="auto" markerWidth="16.23606797749979" markerHeight="10.550836550532098" viewBox="-1.0 -1.3763819204711736 16.23606797749979 10.550836550532098" refX="-1.0" refY="3.8990363547948754"><path id="ProcessOnPath1066" d="M12.0 3.8990363547948754L0.0 7.798072709589751V0.0Z" stroke="#323232" stroke-width="2.0" fill="#323232" transform="matrix(1.0,0.0,0.0,1.0,0.0,0.0)"/></marker></defs><g id="ProcessOnG1002"><path id="ProcessOnPath1003" d="M62.0 31.0H554.0V464.0H62.0V31.0Z" fill="none"/><g id="ProcessOnG1004"><g id="ProcessOnG1005" transform="matrix(1.0,0.0,0.0,1.0,246.0,51.0)" opacity="1.0"><path id="ProcessOnPath1006" d="M0.0 4.0Q0.0 0.0 4.0 0.0L284.0 0.0Q288.0 0.0 288.0 4.0L288.0 346.0Q288.0 350.0 284.0 350.0L4.0 350.0Q0.0 350.0 0.0 346.0Z" stroke="#323232" stroke-width="2.0" stroke-dasharray="none" opacity="1.0" fill="#ffffff"/></g><g id="ProcessOnG1007" transform="matrix(1.0,0.0,0.0,1.0,82.0,121.0)" opacity="1.0"><path id="ProcessOnPath1008" d="M0.0 0.0L100.0 0.0L100.0 70.0L0.0 70.0Z" stroke="#323232" stroke-width="2.0" stroke-dasharray="none" opacity="1.0" fill="#ffffff"/><g id="ProcessOnG1009" transform="matrix(1.0,0.0,0.0,1.0,10.0,18.75)"><text id="ProcessOnText1010" fill="#000000" font-size="13" x="39.0" y="13.325" font-family="微软雅黑" font-weight="normal" font-style="normal" text-decoration="none" family="微软雅黑" text-anchor="middle" size="13">会话层</text><text id="ProcessOnText1011" fill="#000000" font-size="13" x="39.0" y="29.575" font-family="微软雅黑" font-weight="normal" font-style="normal" text-decoration="none" family="微软雅黑" text-anchor="middle" size="13">TLS</text></g></g><g id="ProcessOnG1012" transform="matrix(1.0,0.0,0.0,1.0,82.0,191.0)" opacity="1.0"><path id="ProcessOnPath1013" d="M0.0 0.0L100.0 0.0L100.0 70.0L0.0 70.0Z" stroke="#323232" stroke-width="2.0" stroke-dasharray="none" opacity="1.0" fill="#ffffff"/><g id="ProcessOnG1014" transform="matrix(1.0,0.0,0.0,1.0,10.0,18.75)"><text id="ProcessOnText1015" fill="#000000" font-size="13" x="39.0" y="13.325" font-family="微软雅黑" font-weight="normal" font-style="normal" text-decoration="none" family="微软雅黑" text-anchor="middle" size="13">传输层</text><text id="ProcessOnText1016" fill="#000000" font-size="13" x="39.0" y="29.575" font-family="微软雅黑" font-weight="normal" font-style="normal" text-decoration="none" family="微软雅黑" text-anchor="middle" size="13">TCP</text></g></g><g id="ProcessOnG1017" transform="matrix(1.0,0.0,0.0,1.0,82.0,261.0)" opacity="1.0"><path id="ProcessOnPath1018" d="M0.0 0.0L100.0 0.0L100.0 70.0L0.0 70.0Z" stroke="#323232" stroke-width="2.0" stroke-dasharray="none" opacity="1.0" fill="#ffffff"/><g id="ProcessOnG1019" transform="matrix(1.0,0.0,0.0,1.0,10.0,18.75)"><text id="ProcessOnText1020" fill="#000000" font-size="13" x="39.0" y="13.325" font-family="微软雅黑" font-weight="normal" font-style="normal" text-decoration="none" family="微软雅黑" text-anchor="middle" size="13">网络层</text><text id="ProcessOnText1021" fill="#000000" font-size="13" x="39.0" y="29.575" font-family="微软雅黑" font-weight="normal" font-style="normal" text-decoration="none" family="微软雅黑" text-anchor="middle" size="13">IP</text></g></g><g id="ProcessOnG1022" transform="matrix(1.0,0.0,0.0,1.0,82.0,331.0)" opacity="1.0"><path id="ProcessOnPath1023" d="M0.0 0.0L100.0 0.0L100.0 70.0L0.0 70.0Z" stroke="#323232" stroke-width="2.0" stroke-dasharray="none" opacity="1.0" fill="#ffffff"/><g id="ProcessOnG1024" transform="matrix(1.0,0.0,0.0,1.0,10.0,26.875)"><text id="ProcessOnText1025" fill="#000000" font-size="13" x="39.0" y="13.325" font-family="微软雅黑" font-weight="normal" font-style="normal" text-decoration="none" family="微软雅黑" text-anchor="middle" size="13">......</text></g></g><g id="ProcessOnG1026" transform="matrix(1.0,0.0,0.0,1.0,82.0,51.0)" opacity="1.0"><path id="ProcessOnPath1027" d="M0.0 0.0L100.0 0.0L100.0 70.0L0.0 70.0Z" stroke="#323232" stroke-width="2.0" stroke-dasharray="none" opacity="1.0" fill="#ffffff"/><g id="ProcessOnG1028" transform="matrix(1.0,0.0,0.0,1.0,10.0,18.75)"><text id="ProcessOnText1029" fill="#000000" font-size="13" x="39.0" y="13.325" font-family="微软雅黑" font-weight="normal" font-style="normal" text-decoration="none" family="微软雅黑" text-anchor="middle" size="13">应用层</text><text id="ProcessOnText1030" fill="#000000" font-size="13" x="39.0" y="29.575" font-family="微软雅黑" font-weight="normal" font-style="normal" text-decoration="none" family="微软雅黑" text-anchor="middle" size="13">HTTP2</text></g></g><g id="ProcessOnG1031"><path id="ProcessOnPath1032" d="M182.0 86.0L214.0 86.0L214.0 86.0L230.7639320225002 86.0" stroke="#323232" stroke-width="2.0" stroke-dasharray="none" fill="none" marker-end="url(#ProcessOnMarker1033)"/></g><g id="ProcessOnG1035" transform="matrix(1.0,0.0,0.0,1.0,301.0,93.0)" opacity="1.0"><path id="ProcessOnPath1036" d="M0.0 0.0L178.0 0.0L178.0 104.0L0.0 104.0Z" stroke="#323232" stroke-width="2.0" stroke-dasharray="none" opacity="1.0" fill="#ffffff"/><g id="ProcessOnG1037" transform="matrix(1.0,0.0,0.0,1.0,10.0,0.0)"><text id="ProcessOnText1038" fill="#000000" font-size="13" x="0.0" y="13.325" font-family="微软雅黑" font-weight="normal" font-style="normal" text-decoration="none" family="微软雅黑" text-anchor="start" size="13">POST /upload HTTP/1.1</text><text id="ProcessOnText1039" fill="#000000" font-size="13" x="0.0" y="29.575" font-family="微软雅黑" font-weight="normal" font-style="normal" text-decoration="none" family="微软雅黑" text-anchor="start" size="13">Host: aoang.github.io</text><text id="ProcessOnText1040" fill="#000000" font-size="13" x="0.0" y="45.825" font-family="微软雅黑" font-weight="normal" font-style="normal" text-decoration="none" family="微软雅黑" text-anchor="start" size="13">Content-Type: text/plain</text><text id="ProcessOnText1041" fill="#000000" font-size="13" x="0.0" y="62.075" font-family="微软雅黑" font-weight="normal" font-style="normal" text-decoration="none" family="微软雅黑" text-anchor="start" size="13">Content-Length: 12345</text><text id="ProcessOnText1042" fill="#000000" font-size="13" x="0.0" y="78.325" font-family="微软雅黑" font-weight="normal" font-style="normal" text-decoration="none" family="微软雅黑" text-anchor="start" size="13"></text><text id="ProcessOnText1043" fill="#000000" font-size="13" x="0.0" y="94.575" font-family="微软雅黑" font-weight="normal" font-style="normal" text-decoration="none" family="微软雅黑" text-anchor="start" size="13">{"msg":"helld world"}</text></g></g><g id="ProcessOnG1044" transform="matrix(1.0,0.0,0.0,1.0,304.0,69.0)" opacity="1.0"><path id="ProcessOnPath1045" d="M0.0 0.0L143.0 0.0L143.0 21.0L0.0 21.0Z" stroke="none" stroke-width="0.0" stroke-dasharray="none" opacity="1.0" fill="none"/><g id="ProcessOnG1046" transform="matrix(1.0,0.0,0.0,1.0,0.0,2.375)"><text id="ProcessOnText1047" fill="#000000" font-size="13" x="0.0" y="13.325" font-family="微软雅黑" font-weight="normal" font-style="normal" text-decoration="none" family="微软雅黑" text-anchor="start" size="13">HTTP/1.1</text></g></g><g id="ProcessOnG1048" transform="matrix(1.0,0.0,0.0,1.0,485.0,98.0)" opacity="1.0"><path id="ProcessOnPath1049" d="M0.0 52.0Q2.0 52.0 2.0 46.8L2.0 31.2Q2.0 26.0 22.0 26.0Q2.0 26.0 2.0 20.8L2.0 5.2Q2.0 0.0 0.0 0.0" stroke="#323232" stroke-width="2.0" stroke-dasharray="none" opacity="1.0" fill="none"/><path id="ProcessOnPath1050" d="M0.0 0.0L20.0 0.0L20.0 52.0L0.0 52.0Z" stroke="none" stroke-width="0.0" stroke-dasharray="none" opacity="1.0" fill="none"/></g><g id="ProcessOnG1051" transform="matrix(1.0,0.0,0.0,1.0,301.0,247.0)" opacity="1.0"><path id="ProcessOnPath1052" d="M0.0 0.0L178.0 0.0L178.0 36.0L0.0 36.0Z" stroke="#323232" stroke-width="2.0" stroke-dasharray="none" opacity="1.0" fill="#ffffff"/><g id="ProcessOnG1053" transform="matrix(1.0,0.0,0.0,1.0,10.0,9.875)"><text id="ProcessOnText1054" fill="#000000" font-size="13" x="78.0" y="13.325" font-family="微软雅黑" font-weight="normal" font-style="normal" text-decoration="none" family="微软雅黑" text-anchor="middle" size="13">HEADER frame</text></g></g><g id="ProcessOnG1055" transform="matrix(1.0,0.0,0.0,1.0,301.0,278.0)" opacity="1.0"><path id="ProcessOnPath1056" d="M0.0 0.0L178.0 0.0L178.0 36.0L0.0 36.0Z" stroke="#323232" stroke-width="2.0" stroke-dasharray="none" opacity="1.0" fill="#ffffff"/><g id="ProcessOnG1057" transform="matrix(1.0,0.0,0.0,1.0,10.0,9.875)"><text id="ProcessOnText1058" fill="#000000" font-size="13" x="78.0" y="13.325" font-family="微软雅黑" font-weight="normal" font-style="normal" text-decoration="none" family="微软雅黑" text-anchor="middle" size="13">DATA frame</text></g></g><g id="ProcessOnG1059"><path id="ProcessOnPath1060" d="M301.0 182.0L271.0 182.0L271.0 296.0L285.7639320225002 296.0" stroke="#323232" stroke-width="2.0" stroke-dasharray="none" fill="none" marker-end="url(#ProcessOnMarker1061)"/></g><g id="ProcessOnG1063"><path id="ProcessOnPath1064" d="M508.0 123.0L508.0 265.0L494.2360679774998 265.0" stroke="#323232" stroke-width="2.0" stroke-dasharray="none" fill="none" marker-end="url(#ProcessOnMarker1065)"/></g><g id="ProcessOnG1067" transform="matrix(1.0,0.0,0.0,1.0,301.0,226.0)" opacity="1.0"><path id="ProcessOnPath1068" d="M0.0 0.0L143.0 0.0L143.0 21.0L0.0 21.0Z" stroke="none" stroke-width="0.0" stroke-dasharray="none" opacity="1.0" fill="none"/><g id="ProcessOnG1069" transform="matrix(1.0,0.0,0.0,1.0,0.0,2.375)"><text id="ProcessOnText1070" fill="#000000" font-size="13" x="0.0" y="13.325" font-family="微软雅黑" font-weight="normal" font-style="normal" text-decoration="none" family="微软雅黑" text-anchor="start" size="13">HTTP/2</text></g></g><g id="ProcessOnG1071" transform="matrix(1.0,0.0,0.0,1.0,190.0,409.0)" opacity="1.0"><path id="ProcessOnPath1072" d="M0.0 0.0L178.0 0.0L178.0 35.0L0.0 35.0Z" stroke="none" stroke-width="0.0" stroke-dasharray="none" opacity="1.0" fill="none"/><g id="ProcessOnG1073" transform="matrix(1.0,0.0,0.0,1.0,0.0,9.375)"><text id="ProcessOnText1074" fill="#000000" font-size="13" x="88.0" y="13.325" font-family="微软雅黑" font-weight="normal" font-style="normal" text-decoration="none" family="微软雅黑" text-anchor="middle" size="13">@Aoang</text></g></g></g></g></svg>